<?xml version="1.0" standalone="no"?>
<!DOCTYPE svg PUBLIC "-//W3C//DTD SVG 20010904//EN"
 "http://www.w3.org/TR/2001/REC-SVG-20010904/DTD/svg10.dtd">
<svg version="1.0" xmlns="http://www.w3.org/2000/svg"
 width="1200.000000pt" height="1200.000000pt" viewBox="0 0 1200.000000 1200.000000"
 preserveAspectRatio="xMidYMid meet">

<g transform="translate(0.000000,1200.000000) scale(0.100000,-0.100000)"
fill="#000000" stroke="none">
<path d="M4074 7905 c-482 -75 -835 -262 -884 -466 -47 -196 126 -375 480
-497 138 -47 216 -64 110 -24 -198 76 -337 159 -428 256 -68 73 -92 130 -92
217 0 74 10 98 61 154 74 80 184 135 393 195 407 118 795 129 1169 34 124 -31
334 -113 412 -160 197 -118 228 -256 95 -422 -78 -97 -197 -166 -445 -259
-107 -40 -64 -34 95 13 172 51 281 108 363 191 163 163 174 312 35 459 -152
162 -416 268 -763 309 -156 18 -485 18 -601 0z"/>
<path d="M8595 7913 c-79 -10 -253 -46 -332 -69 -336 -96 -553 -237 -598 -388
-18 -59 -18 -70 -4 -136 33 -152 195 -280 481 -378 173 -60 198 -59 51 1 -220
90 -379 206 -433 314 -32 63 -38 158 -16 218 45 116 211 208 516 285 517 132
1013 94 1435 -110 280 -135 322 -305 125 -500 -78 -78 -158 -122 -353 -196
-78 -29 -138 -54 -133 -54 39 -1 300 82 381 122 141 69 261 202 286 316 21
102 -18 190 -131 295 -157 146 -426 242 -769 277 -96 9 -439 12 -506 3z"/>
<path d="M4173 7125 l7 -75 -33 0 c-59 0 -77 -10 -77 -41 l0 -29 165 0 c158 0
165 -1 165 -20 0 -19 -7 -20 -97 -21 -54 0 -118 -4 -143 -8 -33 -6 -8 -9 98
-10 l142 -1 0 -24 c0 -23 -3 -24 -97 -31 -190 -15 -207 -22 -52 -24 138 -1
147 -2 152 -21 3 -11 2 -22 -2 -24 -3 -2 -65 -8 -136 -12 -155 -8 -142 -22 23
-23 103 -1 112 -3 112 -20 0 -25 -35 -31 -178 -31 -63 0 -113 -2 -111 -5 3 -2
50 -9 105 -15 166 -17 184 -20 184 -35 0 -21 -25 -25 -163 -25 -72 0 -127 -4
-122 -8 6 -5 59 -14 119 -21 143 -16 166 -21 166 -36 0 -16 -36 -22 -180 -32
-114 -8 -114 -8 -50 -14 36 -4 97 -8 135 -9 80 -3 69 -6 -110 -29 l-130 -16
-3 -43 -3 -42 228 0 229 0 34 -57 c78 -128 98 -251 59 -366 -41 -122 -112
-204 -256 -293 -188 -118 -508 -205 -865 -237 l-58 -6 0 110 0 109 -32 0 c-75
0 -78 4 -78 91 l0 79 -155 0 -155 0 0 -85 0 -85 -55 0 -55 0 0 -35 0 -36 175
6 c169 6 175 6 175 -13 0 -24 -38 -31 -165 -33 -49 0 -99 -4 -110 -9 -12 -5
36 -9 128 -9 l147 -1 0 -24 c0 -23 -3 -24 -152 -38 -133 -13 -143 -16 -77 -17
42 0 110 -4 152 -7 65 -6 77 -10 77 -25 0 -14 -12 -18 -72 -24 -40 -3 -109
-10 -153 -14 l-80 -8 80 -2 c150 -2 215 -12 215 -31 0 -22 -54 -30 -198 -30
-58 0 -103 -2 -100 -5 4 -4 261 -34 301 -35 4 0 7 -9 7 -20 0 -18 -7 -20 -92
-21 -51 -1 -124 -4 -163 -8 l-70 -6 158 -19 c136 -16 157 -21 157 -36 0 -19
-10 -21 -220 -37 l-95 -8 150 -10 150 -10 -145 -18 c-200 -25 -190 -22 -190
-68 l0 -39 263 0 264 0 6 107 c4 58 8 107 10 109 5 5 367 35 597 49 135 9 428
18 653 22 l407 6 0 169 0 168 36 0 36 0 -5 -52 c-4 -29 -8 -126 -9 -216 l-3
-162 214 -130 c118 -72 215 -129 216 -128 1 2 -2 140 -7 307 -5 167 -7 306 -4
308 11 11 273 2 367 -12 110 -16 267 -51 287 -64 9 -5 16 -54 22 -161 5 -84
11 -155 14 -157 2 -3 22 -7 43 -9 597 -63 1001 -140 1551 -296 l182 -52 0 -78
0 -78 271 0 271 0 -5 40 c-2 23 -6 42 -8 44 -2 1 -76 11 -164 22 l-160 19 70
6 c39 4 104 8 145 9 l75 3 -70 8 c-38 4 -109 11 -157 14 -49 4 -88 10 -88 13
1 24 30 33 170 49 152 18 154 18 90 24 -36 4 -109 7 -162 8 -89 1 -98 3 -98
20 0 21 11 23 195 41 60 6 111 13 114 16 2 2 -45 4 -106 4 -149 0 -203 8 -203
30 0 21 55 29 205 31 l100 2 -80 8 c-44 4 -113 11 -152 14 -61 6 -73 10 -73
24 0 21 61 30 214 32 l91 2 -125 13 c-69 7 -137 13 -152 13 -23 1 -28 6 -28
26 l0 25 143 1 c88 0 134 4 122 9 -11 5 -54 9 -96 9 -122 1 -169 10 -169 32 0
18 11 19 175 19 l175 0 -2 30 c-2 29 -4 30 -55 30 l-53 0 0 85 0 86 -157 -3
-156 -3 2 -77 2 -77 -60 -7 -61 -7 0 -153 0 -154 -27 0 c-155 1 -431 42 -608
91 -485 134 -624 289 -431 482 105 105 335 229 551 298 347 110 694 282 977
485 l87 63 3 -47 3 -47 253 -3 252 -2 0 43 0 43 -157 20 -158 19 140 10 140
11 -105 7 c-155 11 -190 17 -190 33 0 17 12 19 164 38 65 8 121 17 124 20 3 3
-49 6 -115 6 -137 0 -183 7 -183 26 0 17 15 20 170 34 69 7 127 14 129 16 2 2
-36 4 -86 4 -145 0 -213 10 -213 30 0 15 17 19 138 26 l137 8 -135 11 c-129
10 -135 11 -138 33 -3 22 -3 22 149 22 84 0 150 2 148 4 -2 3 -71 10 -152 17
-144 12 -147 13 -147 36 l0 23 138 0 c92 0 132 3 122 10 -8 5 -60 10 -115 10
-113 0 -145 6 -145 26 0 11 31 14 165 14 l165 0 0 35 0 35 -50 0 -50 0 0 75 0
75 -150 0 -150 0 0 -74 0 -75 -52 -3 -53 -3 3 -146 2 -147 -140 -62 c-341
-150 -611 -223 -1070 -287 -101 -14 -196 -18 -495 -18 -324 1 -391 3 -536 23
-532 70 -1023 201 -1586 423 l-163 64 0 111 c0 124 0 124 -71 124 l-39 0 0 75
0 75 -151 0 -152 0 6 -75z m812 -660 c351 -125 728 -210 1156 -261 182 -21
699 -30 899 -15 366 27 766 98 1059 187 45 14 85 24 87 21 2 -2 -55 -25 -127
-51 -1028 -370 -2089 -335 -3088 100 -128 56 -174 80 -136 70 11 -2 79 -26
150 -51z m349 -350 c197 -92 476 -172 726 -207 123 -17 504 -17 630 1 52 7
137 22 188 33 52 11 96 18 98 15 6 -6 -153 -62 -246 -87 -408 -108 -857 -62
-1234 127 -132 66 -288 163 -262 163 1 0 47 -20 100 -45z"/>
<path d="M2850 6629 c-251 -32 -526 -127 -674 -233 -143 -102 -182 -221 -115
-354 39 -78 104 -137 218 -196 83 -43 328 -133 337 -123 2 2 -35 18 -84 36
-167 63 -314 156 -378 240 -33 43 -64 123 -64 165 0 147 158 254 494 337 376
91 726 84 1051 -22 362 -119 484 -247 398 -418 -45 -91 -117 -153 -256 -220
-67 -33 -155 -69 -194 -82 -88 -28 -89 -36 -2 -14 209 52 336 112 421 197 78
78 112 146 112 223 0 78 -22 124 -99 201 -178 178 -523 277 -960 273 -77 -1
-169 -5 -205 -10z"/>
<path d="M8105 5919 c-100 -13 -257 -53 -353 -88 -116 -42 -208 -96 -269 -156
-81 -81 -93 -153 -42 -254 47 -94 154 -166 343 -231 119 -41 129 -37 21 8
-166 69 -284 160 -321 247 -19 47 -18 123 4 165 49 98 266 187 577 235 159 25
429 17 576 -18 122 -29 295 -94 360 -135 140 -90 161 -187 65 -305 -59 -72
-131 -120 -255 -167 -136 -52 -156 -61 -116 -53 59 11 221 66 269 90 64 32
141 106 177 168 115 200 -125 411 -546 481 -112 18 -397 26 -490 13z"/>
<path d="M5658 5444 c-9 -9 -11 -424 -2 -424 3 0 23 13 43 29 44 35 117 72
191 97 40 13 84 19 163 19 l108 0 -3 104 -3 105 -60 18 c-117 34 -419 71 -437
52z"/>
<path d="M5070 5033 c0 -77 23 -220 47 -298 107 -343 430 -622 743 -642 226
-15 456 110 542 294 64 135 47 307 -43 441 -42 64 -112 132 -164 160 -23 13
-58 17 -145 17 -136 0 -200 -19 -292 -88 -159 -119 -224 -302 -182 -507 l7
-35 -31 37 c-28 31 -32 43 -32 94 0 55 12 175 26 270 l6 40 -194 117 c-107 64
-196 117 -199 117 -8 0 9 -154 25 -222 24 -106 75 -234 127 -320 27 -45 47
-83 45 -85 -2 -3 -28 28 -56 69 -103 143 -172 326 -187 493 -5 64 -14 84 -35
85 -5 0 -8 -17 -8 -37z m1064 -153 c99 -38 176 -139 190 -252 6 -53 -8 -66
-19 -18 -10 46 -96 134 -157 161 -147 65 -323 0 -395 -146 l-25 -50 5 61 c6
78 33 130 98 188 83 75 196 96 303 56z m-44 -138 c19 -9 45 -33 58 -52 20 -29
23 -44 19 -89 -3 -48 -8 -58 -46 -94 -41 -38 -44 -39 -102 -35 -48 3 -65 10
-89 33 -122 116 10 313 160 237z m150 -239 c-20 -93 -112 -172 -199 -173 -115
-1 -220 94 -221 200 l0 35 16 -30 c82 -159 321 -149 392 15 20 48 28 21 12
-47z"/>
</g>
</svg>
